<svg xmlns="http://www.w3.org/2000/svg" width="432" height="110" viewBox="0 0 432 110" version="1.1"><title>google</title><desc>Created with Sketch.</desc><g stroke="none" stroke-width="1" fill="none" fill-rule="evenodd"><g transform="translate(9.000000, 27.000000)"><path d="M50.3 25.2C50.3 23.1 49.4 21.2 48.1 19.9 48.8 20.6 49.3 21.5 49.3 22.4 49.3 23.4 48.9 24.5 48.2 25.2 47.2 26.1 45.6 26.6 44.3 26.6 39.2 26.6 33.1 23.5 28.9 18.7 27.9 20.5 26.6 22.2 25.2 23.9 30.5 29.3 37.8 32.3 43.4 32.3 47.2 32.3 50.3 29.1 50.3 25.2L50.3 25.2 50.3 25.2ZM21.5 18.7C19.3 14.7 18.1 10.6 18.1 7 18.1 5.3 18.8 3.6 19.9 2.4 20.7 1.7 21.5 1.2 22.5 1.2 23.4 1.2 24.6 1.6 25.2 2.3 25.2 2.3 25.2 2.3 25.2 2.3 24.3 3.3 23.8 4.9 23.8 6.2 23.8 8.3 24.3 10.5 25.2 12.6 24.3 14.7 23.1 16.8 21.5 18.7L21.5 18.7 21.5 18.7Z" fill="#0079C1"/><path d="M25.2 0.2C23.1 0.2 21.2 1 19.9 2.4 20.7 1.7 21.5 1.2 22.5 1.2 23.4 1.2 24.6 1.6 25.2 2.3 26.1 3.3 26.7 4.9 26.7 6.2 26.7 11.3 23.5 17.3 18.8 21.5 20.6 22.5 22.3 23.8 23.9 25.2 29.3 19.9 32.4 12.7 32.4 7 32.4 3.2 29.2 0.2 25.2 0.2L25.2 0.2 25.2 0.2ZM18.7 28.9C14.8 31.1 10.6 32.3 7 32.3 5.3 32.3 3.6 31.6 2.4 30.4 1.6 29.7 1.2 28.9 1.2 27.9 1.2 27 1.6 25.8 2.3 25.2L2.3 25.2C3.3 26.1 4.9 26.6 6.2 26.6 8.3 26.6 10.5 26.1 12.7 25.2 14.8 26 16.8 27.3 18.7 28.9L18.7 28.9 18.7 28.9Z" fill="#E31837"/><path d="M0.1 25.2C0.1 27.3 1 29.1 2.4 30.4 1.6 29.7 1.2 28.9 1.2 27.9 1.2 27 1.6 25.8 2.3 25.2 3.3 24.3 4.9 23.7 6.2 23.7 11.3 23.7 17.3 26.9 21.5 31.6 22.6 29.8 23.8 28.1 25.3 26.5 20 21.1 12.7 18 7 18 3.2 18 0.1 21.2 0.1 25.2L0.1 25.2 0.1 25.2ZM28.9 31.7C31.2 35.6 32.4 39.8 32.4 43.3 32.4 45.1 31.7 46.7 30.5 47.9 29.8 48.7 28.9 49.1 28 49.1 27.1 49.1 25.9 48.7 25.2 48 25.2 48 25.2 48 25.2 48 26.1 47.1 26.7 45.4 26.7 44.1 26.7 42.1 26.1 39.9 25.2 37.7 26.1 35.6 27.4 33.5 28.9 31.7L28.9 31.7 28.9 31.7Z" fill="#FFC425"/><path d="M25.2 50.2C27.3 50.2 29.2 49.3 30.5 47.9 29.8 48.7 28.9 49.1 28 49.1 27.1 49.1 25.9 48.7 25.2 48 24.3 47.1 23.8 45.4 23.8 44.1 23.8 39.1 26.9 33 31.7 28.8 29.9 27.8 28.2 26.6 26.5 25.1 21.1 30.4 18.1 37.7 18.1 43.3 18.1 47.1 21.3 50.2 25.2 50.2L25.2 50.2 25.2 50.2ZM31.8 21.5C35.7 19.2 39.9 18 43.4 18 45.2 18 46.8 18.7 48.1 19.9 48.8 20.6 49.3 21.5 49.3 22.4 49.3 23.3 48.9 24.5 48.2 25.2 48.2 25.2 48.2 25.2 48.2 25.2 47.2 24.3 45.6 23.7 44.2 23.7 42.2 23.7 40 24.3 37.8 25.2 35.7 24.3 33.6 23 31.8 21.5L31.8 21.5 31.8 21.5Z" fill="#49A942"/><path d="M21.5 18.7C23.1 16.8 24.3 14.7 25.2 12.6 24.9 11.8 24.6 10.9 24.3 10 23.9 12.3 23 15.1 21.1 17.9 21.2 18.2 21.4 18.4 21.5 18.7L21.5 18.7 21.5 18.7Z" opacity="0.6" fill="#000000"/><path d="M20.8 1.7C21.3 1.4 21.9 1.2 22.5 1.2 23.4 1.2 24.6 1.6 25.2 2.3 25.2 2.3 25.2 2.3 25.2 2.3 24.8 2.8 24.5 3.4 24.2 4.1 23.5 2 22 1.2 20.8 1.7 20.8 1.7 20.8 1.7 20.8 1.7L20.8 1.7 20.8 1.7Z" opacity="0.6" fill="#000000"/><path d="M17.9 29.3C15.1 27.4 12.3 26.5 10 26.1 10.9 25.8 11.8 25.5 12.7 25.2 14.8 26.1 16.8 27.3 18.7 28.9 18.4 29 18.2 29.2 17.9 29.3L17.9 29.3 17.9 29.3Z" opacity="0.5" fill="#000000"/><path d="M1.7 29.6C1.4 29.1 1.2 28.5 1.2 27.9 1.2 27 1.6 25.8 2.3 25.2 2.3 25.2 2.3 25.2 2.3 25.2 2.8 25.6 3.4 25.9 4.1 26.2 2 26.9 1.2 28.4 1.7 29.6 1.7 29.6 1.7 29.6 1.7 29.6L1.7 29.6 1.7 29.6Z" opacity="0.5" fill="#000000"/><path d="M29.4 32.4C27.5 35.3 26.5 38 26.1 40.3 25.9 39.5 25.6 38.6 25.2 37.7 26.1 35.6 27.4 33.5 28.9 31.7 29.1 31.9 29.2 32.2 29.4 32.4L29.4 32.4 29.4 32.4Z" opacity="0.5" fill="#000000"/><path d="M29.7 48.6C29.2 48.9 28.6 49.1 28 49.1 27.1 49.1 25.9 48.7 25.2 48 25.2 48 25.2 48 25.2 48 25.7 47.6 26 46.9 26.3 46.3 26.9 48.3 28.4 49.1 29.7 48.6 29.7 48.6 29.7 48.6 29.7 48.6L29.7 48.6 29.7 48.6Z" opacity="0.5" fill="#000000"/><path d="M32.5 21C35.4 23 38.1 23.9 40.5 24.3 39.6 24.5 38.7 24.8 37.8 25.2 35.7 24.3 33.6 23 31.8 21.5 32 21.3 32.3 21.2 32.5 21L32.5 21 32.5 21Z" opacity="0.6" fill="#000000"/><path d="M48.8 20.7C49.1 21.3 49.3 21.8 49.3 22.4 49.3 23.4 48.9 24.5 48.2 25.2 48.2 25.2 48.2 25.2 48.2 25.2 47.7 24.7 47.1 24.4 46.4 24.2 48.5 23.5 49.3 22 48.8 20.7 48.8 20.7 48.8 20.7 48.8 20.7L48.8 20.7 48.8 20.7Z" opacity="0.6" fill="#000000"/><g transform="translate(239.322443, 2.354167)" fill="#231F20"><path d="M19.6 10.5L22.9 10.5 13.6 37 9.7 37 0.3 10.5 3.7 10.5 11.7 34.2 19.6 10.5 19.6 10.5Z"/><path d="M35.8 34.8C39.6 34.8 42.3 32.9 43 27.8L46.1 28.3C45.2 34.7 41.2 37.6 35.8 37.6 29 37.6 24.8 33 24.8 23.5 24.8 15.1 28.5 9.9 35.5 9.9 42.9 9.9 46.2 15.7 46.2 23.4L46.2 24.2 27.9 24.2C27.9 31.6 31.1 34.8 35.8 34.8L35.8 34.8 35.8 34.8ZM42.9 21.5L42.9 21.4C42.6 16.4 40.1 12.7 35.5 12.7 30.9 12.7 28.2 16.1 27.9 21.5L42.9 21.5 42.9 21.5Z"/><path d="M62.3 9.9C68 9.9 71.2 12.5 71.2 18L71.2 37 68.1 37 68.1 18.5C68.1 14.3 65.9 12.7 61.8 12.7 58.5 12.7 55.3 15.2 54 17.9L54 37 50.9 37 50.9 10.5 54 10.5 54 14.1C55.7 11.8 59.2 9.9 62.3 9.9L62.3 9.9 62.3 9.9Z"/><path d="M87.3 36.8C86.6 37.1 85.2 37.3 83.8 37.3 79.5 37.3 78.1 35.2 78.1 31.1L78.1 13.3 74.3 13.3 74.3 10.5 78.1 10.5 78.1 1.7 81.2 0.4 81.2 10.5 87.3 10.5 87.3 13.3 81.2 13.3 81.2 30.7C81.2 33.6 81.8 34.4 84.2 34.4 85.4 34.4 86.4 34.2 87.3 33.8L87.3 36.8 87.3 36.8 87.3 36.8Z"/><path d="M100.9 37.6C95.1 37.6 92 35 92 29.5L92 10.5 95.1 10.5 95.1 29C95.1 33.2 97.2 34.8 101.3 34.8 104.7 34.8 107.9 32.3 109.1 29.6L109.1 10.5 112.2 10.5 112.2 37 109.1 37 109.1 33.4C107.5 35.7 104 37.6 100.9 37.6L100.9 37.6 100.9 37.6Z"/><path d="M127.2 13.1C124.2 13.1 121.1 15.8 120.9 18.9L120.9 37 117.8 37 117.8 10.5 120.9 10.5 120.9 14.7C121.7 12.2 124.9 9.9 127.3 9.9 127.9 9.9 128.5 9.9 129 10.1L129 13.3C128.5 13.1 128 13.1 127.2 13.1L127.2 13.1 127.2 13.1Z"/><path d="M141.1 34.8C144.8 34.8 147.5 32.9 148.3 27.8L151.3 28.3C150.4 34.7 146.4 37.6 141.1 37.6 134.2 37.6 130 33 130 23.5 130 15.1 133.7 9.9 140.7 9.9 148.1 9.9 151.4 15.7 151.4 23.4L151.4 24.2 133.2 24.2C133.2 31.6 136.3 34.8 141.1 34.8L141.1 34.8 141.1 34.8ZM148.1 21.5L148.1 21.4C147.9 16.4 145.4 12.7 140.7 12.7 136.1 12.7 133.5 16.1 133.2 21.5L148.1 21.5 148.1 21.5Z"/><path d="M164.8 37.6C159.6 37.6 155.1 34.7 154.5 29.2L157.6 28.7C158.1 32.8 161.1 34.8 164.9 34.8 169.8 34.8 171.6 32.6 171.6 30 171.6 22.4 155.4 27.3 155.4 16.7 155.4 12.5 159.1 9.9 164.5 9.9 170 9.9 173.5 12.5 174.3 18.2L171.2 18.6C170.7 14.5 168.3 12.7 164.5 12.7 160.7 12.7 158.4 14.3 158.4 16.6 158.4 24.3 174.7 19.5 174.7 29.9 174.7 34.4 171.2 37.6 164.8 37.6L164.8 37.6 164.8 37.6Z"/></g><path d="M224.7 35.2L222 37.7C221.4 38 220.8 38.4 220.2 38.7 218.4 39.5 216.5 39.7 214.8 39.7 213.1 39.7 210.3 39.6 207.5 37.6 203.6 34.8 201.9 30.1 201.9 25.9 201.9 17.4 208.8 13.2 214.5 13.2 216.5 13.2 218.6 13.7 220.2 14.8 223 16.6 223.7 19 224.1 20.2L211.1 25.4 206.8 25.8C208.2 32.8 213 36.8 218.2 36.8 220.8 36.8 222.8 36 224.6 35.1 224.6 35.1 224.9 34.9 224.7 35.2L224.7 35.2 224.7 35.2ZM216.8 21.3C217.9 20.9 218.4 20.5 218.4 19.8 218.4 17.6 216 15 213 15 210.8 15 206.6 16.7 206.6 22.7 206.6 23.6 206.7 24.6 206.8 25.6L216.8 21.3 216.8 21.3ZM197.5 3.5C197.7 1.6 198.2 1 200 0L192.1 0 187.9 2 192.2 2 192.2 34.7 192.2 36C192.2 37.1 192 37.2 190.7 38.9L200.5 38.9 202.5 37.7C201.6 37.6 200.7 37.5 199.7 37.4 197.9 37.2 197.5 36.9 197.5 34.8L197.5 3.5 197.5 3.5ZM182.4 15.9C183.7 17 186.3 19.2 186.3 23.4 186.3 27.4 184 29.4 181.7 31.2 181 31.9 180.1 32.7 180.1 33.9 180.1 35.1 181 35.7 181.6 36.2L183.6 37.8C186 39.8 188.2 41.7 188.2 45.5 188.2 50.7 183.2 55.9 173.7 55.9 165.7 55.9 161.8 52.1 161.8 48 161.8 46 162.8 43.2 166 41.3 169.5 39.2 174.1 38.9 176.6 38.8 175.8 37.8 174.9 36.7 174.9 35 174.9 34.1 175.2 33.6 175.5 32.9 174.9 32.9 174.3 33 173.7 33 167.9 33 164.6 28.6 164.6 24.4 164.6 21.8 165.7 19 168.1 17 171.2 14.4 175 13.9 178 13.9L189.4 13.9 185.8 15.9 182.4 15.9 182.4 15.9ZM178.5 40.4C178 40.3 177.8 40.3 177.2 40.3 176.7 40.3 173.7 40.4 171.4 41.2 170.2 41.6 166.6 43 166.6 46.9 166.6 50.8 170.5 53.6 176.4 53.6 181.7 53.6 184.5 51 184.5 47.6 184.5 44.8 182.7 43.3 178.5 40.4L178.5 40.4 178.5 40.4ZM180.1 29.9C181.3 28.6 181.5 26.9 181.5 25.9 181.5 21.9 179.1 15.7 174.5 15.7 173.1 15.7 171.5 16.5 170.6 17.6 169.7 18.7 169.4 20.2 169.4 21.6 169.4 25.3 171.6 31.4 176.3 31.4 177.7 31.4 179.2 30.8 180.1 29.9L180.1 29.9 180.1 29.9ZM148.1 39.6C139.3 39.6 134.6 32.8 134.6 26.6 134.6 19.4 140.6 13.2 149 13.2 157.1 13.2 162.2 19.6 162.2 26.2 162.2 32.7 157.1 39.6 148.1 39.6L148.1 39.6 148.1 39.6ZM155 35.1C156.4 33.4 156.7 31.2 156.7 29 156.7 24.2 154.4 14.9 147.5 14.9 145.7 14.9 143.9 15.6 142.5 16.8 140.4 18.7 140 21.1 140 23.5 140 29 142.7 37.9 149.4 37.9 151.6 37.9 153.8 36.9 155 35.1L155 35.1 155 35.1ZM118.7 39.6C109.9 39.6 105.2 32.8 105.2 26.6 105.2 19.4 111.1 13.2 119.6 13.2 127.7 13.2 132.8 19.6 132.8 26.2 132.8 32.7 127.7 39.6 118.7 39.6L118.7 39.6 118.7 39.6ZM125.6 35.1C127 33.4 127.3 31.2 127.3 29 127.3 24.2 125 14.9 118.1 14.9 116.3 14.9 114.5 15.6 113.1 16.8 111 18.7 110.6 21.1 110.6 23.5 110.6 29 113.3 37.9 120 37.9 122.1 37.9 124.4 36.9 125.6 35.1L125.6 35.1 125.6 35.1ZM101.7 31.4C101.7 30.9 101.8 29.4 101.8 28.9 101.9 28.5 102 28.4 102.3 28.1L103.7 26.8 92.7 26.8 88.6 29 96.4 28.6 96.4 36.9C94.8 37.5 93.1 38.2 89.8 38.2 78.5 38.2 71.5 29.1 71.5 19.4 71.5 10.3 77.6 4.1 85.8 4.1 91.9 4.1 95.1 7.3 96.9 9L95.6 11 97.4 10.6 101.7 6.5C100.6 5.8 98.8 4.4 94.9 3.3 92.4 2.7 89.8 2.3 87 2.3 73.7 2.3 66 11.6 66 21.6 66 29.8 71.5 40.3 85.8 40.3 88.6 40.3 91.3 39.9 94.3 39.4L101.7 37.7 101.7 31.4 101.7 31.4Z" fill="#231F20"/></g></g></svg>