<svg xmlns="http://www.w3.org/2000/svg" width="432" height="237" viewBox="0 0 432 237" version="1"><title>Artboard 2</title><desc>Created with Sketch.</desc><g stroke="none" stroke-width="1" fill="none" fill-rule="evenodd"><g transform="translate(8.000000, 2.000000)"><path d="M257 10C245-3 224-3 212 9 211 10 211 10 210 9 197-3 177-3 164 10 151 23 151 44 165 58 180 73 204 97 210 103 211 103 211 103 212 103 217 97 241 73 256 58 271 44 270 23 257 10L257 10ZM232 62L225 68C225 69 224 69 224 68L212 56C211 55 211 55 210 56L198 68C197 69 197 69 196 68L190 62C189 61 189 61 190 60L202 48C203 47 203 47 202 46L190 34C189 33 189 33 190 32L196 26C197 25 197 25 198 26L210 38C211 39 211 39 212 38L224 26C224 25 225 25 225 26L232 32C232 33 232 33 232 34L220 46C219 47 219 47 220 48L232 60C232 61 232 61 232 62L232 62Z" fill="#D4003B"/><path d="M0 188L0 122C0 121 1 121 1 121L44 121C44 121 44 121 44 122L44 134C44 135 44 135 44 135L18 135C17 135 17 135 17 136L17 147C17 148 17 148 18 148L40 148C41 148 41 148 41 149L41 161C41 162 41 162 40 162L18 162C17 162 17 163 17 163L17 173C17 174 17 174 18 174L44 174C45 174 45 175 45 175L45 188C45 188 45 188 44 188L1 188C1 188 0 188 0 188" fill="#000000"/><path d="M115 122L94 152C94 152 94 153 94 153L117 187C117 188 117 188 116 188L99 188C98 188 98 188 98 188L85 167C85 166 84 166 84 167L71 188C71 188 70 188 70 188L53 188C52 188 52 188 52 187L74 153C74 153 74 152 74 152L54 122C54 122 54 121 55 121L72 121C73 121 73 121 73 121L84 138C84 139 85 139 85 138L96 121C96 121 96 121 96 121L114 121C115 121 115 122 115 122" fill="#000000"/><path d="M166 173L146 173C145 173 145 173 145 174L140 188C140 188 139 188 139 188L123 188C123 188 122 188 122 187L147 121C147 121 147 121 148 121L164 121C164 121 165 121 165 121L189 187C189 188 189 188 188 188L173 188C172 188 172 188 172 188L167 174C167 173 166 173 166 173L166 173ZM151 159L161 159C162 159 162 158 162 158L157 140C156 139 155 139 155 140L150 158C150 158 150 159 151 159L151 159Z" fill="#000000"/><path d="M255 121L268 121C268 121 269 121 269 122L277 187C277 188 276 188 276 188L261 188C260 188 260 188 260 188L256 155C256 154 255 154 254 155L242 180C242 180 242 181 242 181L230 181C230 181 230 180 229 180L217 155C217 154 216 154 216 155L212 188C212 188 211 188 211 188L196 188C195 188 195 188 195 187L203 122C203 121 204 121 204 121L216 121C217 121 217 121 217 121L235 160C235 161 236 161 237 160L254 121C255 121 255 121 255 121" fill="#000000"/><path d="M322 120C338 121 351 134 353 151 355 171 340 189 319 189 300 190 284 174 284 155 284 134 301 118 322 120L322 120ZM319 173C329 173 337 165 337 155 337 145 329 136 319 136 309 136 301 145 301 155 301 165 309 173 319 173L319 173Z" fill="#000000"/><path d="M365 188L365 122C365 121 365 121 365 121L393 121C408 121 416 132 416 143 416 153 411 162 401 165 400 165 400 166 400 166L415 187C415 188 415 188 414 188L397 188C397 188 397 188 397 188L383 166C383 166 382 166 382 166 381 166 381 166 381 167L381 188C381 188 381 188 380 188L365 188C365 188 365 188 365 188L365 188ZM381 136L381 151C381 151 381 152 382 152L392 152C397 152 399 147 399 143 399 139 397 135 392 135L382 135C381 135 381 135 381 136L381 136Z" fill="#000000"/><text font-family="Calluna" font-size="24" font-weight="bold" fill="#444444"><tspan x="105" y="228">Creating out of love</tspan></text></g></g></svg>