<svg xmlns="http://www.w3.org/2000/svg" version="1" x="0" y="0" viewBox="6 117 608 608" xml:space="preserve"><style type="text/css">
	.st0{fill:#EF5E24;}
	.st1{fill:#D82F11;}
	.st2{fill:#D82F10;}
	.st3{fill:#F9C1B3;}
	.st4{fill:#F4937C;}
	.st5{fill:#ECDDCF;}
	.st6{fill:#771213;}
	.st7{fill:none;stroke:#F9C1B3;stroke-width:7;stroke-miterlimit:10;}
</style><rect x="6" y="117" class="st0" width="608" height="608"/><path class="st1" d="M575 341c-7 0-11 5-11 12 0 7 4 10 11 11 7-1 12-5 12-12C587 344 583 341 575 341z"/><path class="st1" d="M311 513c-7 0-11 5-11 12 0 7 4 11 11 11 7 0 11-4 12-11C322 518 319 513 311 513z"/><path class="st1" d="M108 512c-7-1-12 3-12 10 -1 7 4 11 11 12 7 0 11-4 12-11C119 517 115 513 108 512z"/><path class="st1" d="M403 616c-7 1-11 5-10 12 0 7 5 10 11 10 7 0 11-4 11-12C415 619 410 615 403 616z"/><path class="st1" d="M508 472c-7 0-12 4-12 11 0 7 4 12 11 11 7 0 11-5 11-12C518 476 514 472 508 472z"/><path class="st2" d="M408 368c6-2 10-6 10-12 0-7-5-11-12-10 -7 0-10 4-10 11C397 363 400 367 408 368z"/><path class="st2" d="M134 616c-6 0-11 3-11 10 0 7 4 11 11 12 7 0 12-3 12-10C145 621 140 616 134 616z"/><path class="st3" d="M254 405c1 0 6-1 7-1 11 1 15 12 19 20 0 0 0 0 0 1 1 2 1 3 2 5l14 13c2 0 5-1 7-2 5-3 6-6 3-11 -10-16-17-40-35-49 -1-3 7-2 8-3 22-1 44-2 65-3 6 0 11-2 11-9 0-7-6-7-10-7 -13-1-26-2-39-3 -10-3-32 3-42 0 13-3 0 0 25-5 24-2 11-1 24-2 9-2 19 2 26-6 0-9-4-12-13-12 -7 0-15 0-22 0 -10 0-20 0-30-1 0 0-25 2-26 2 3-2 28-5 35-8l0 0c4-1 9-2 13-3 6-1 14 0 12-10 -2-9-8-7-15-6 -35 5-71 11-107 16 -30 4-60 8-90 12 0 0 0 1 0 1 -4 29-7 57-8 86 53 6 106 12 159 18 6 1 11 0 14-5 2-3 2-5 1-7 0 0 0 0 0 0l-5-5c0 0 0 0 0 0 -1 0-2-1-4-1 -11-4-22-5-35-8 3-1 22-4 24-4L254 405z"/><path class="st4" d="M214 367c-2-2-5-2-7 0 -2 2-2 5 0 7l33 30 13 12 4 4 5 5 41 38c0 0 1 0 1 1 0-4 2-6 7-7 0 0 0-1-1-1l-13-12 -14-13"/><path class="st5" d="M304 464c0 0 13 5 13 5s-6-11-6-11C306 457 304 459 304 464z"/><path class="st6" d="M97 335c0 0 0-1 0-1 1-6 1-11-1-17 -3-10-13-11-21-13 -6-2-8 2-9 7 0 0 0 0 0 0 -21-3-40-11-61-13 0 47 0 95 0 142 15 0 30 0 46 0l0 0c0 1 1 2 2 2 0 0 0 0 0 0 16 7 26 1 34-20 0 0 0-1 0-1C90 392 92 363 97 335z"/><line class="st7" x1="130" y1="523" x2="290" y2="523"/><line class="st7" x1="159" y1="628" x2="380" y2="628"/><line class="st7" x1="418" y1="611" x2="494" y2="501"/><line class="st7" x1="324" y1="507" x2="396" y2="375"/><line class="st7" x1="431" y1="353" x2="552" y2="353"/><path class="st5" d="M214 367c-2-2-5-2-7 0 -2 2-2 5 0 7L214 367z"/></svg>