<svg xmlns="http://www.w3.org/2000/svg" version="1.1" x="0" y="0" viewBox="0 0 616.5 508.5" xml:space="preserve"><style type="text/css">
	.st0{fill:#111111;}
	.st1{fill:#FFFFFF;}
	.st2{fill:#FEFDF4;}
	.st3{fill:#D4003B;}
	.st4{fill:none;stroke:#D4003B;stroke-width:16;stroke-linecap:round;stroke-linejoin:round;stroke-miterlimit:10;}
	.st5{fill:none;stroke:#000000;stroke-width:9;stroke-linecap:round;stroke-miterlimit:10;}
	.st6{stroke:#D4003B;stroke-width:5;stroke-miterlimit:10;}
	.st7{fill:none;stroke:#000000;stroke-width:10;stroke-linecap:round;stroke-miterlimit:10;}
	.st8{fill:#BF2000;}
	.st9{fill:#009EFF;}
	.st10{fill:#FF7715;}
	.st11{fill:#FF6B2A;}
	.st12{fill:#E92700;}
	.st13{fill:#99D8FF;}
	.st14{fill:#FFC700;}
	.st15{fill:#231F20;}
	.st16{fill:#FFFFFF;stroke:#FFFFFF;stroke-width:8;stroke-miterlimit:10;}
	.st17{fill:#D4003B;stroke:#D4003B;stroke-width:7;stroke-miterlimit:10;}
	.st18{fill:#FDFDFD;}
	.st19{fill:#E6E6E6;}
	.st20{fill:#208BC3;}
	.st21{fill:none;}
	.st22{fill:#959595;}
	.st23{font-family:'AdelleSans-Bold';}
	.st24{font-size:20px;}
</style><path class="st19" d="M282.5 432.9c-99.3 0-180-80.8-180-180s80.8-180 180-180 180 80.8 180 180S381.8 432.9 282.5 432.9zM282.5 81.8c-94.3 0-171 76.7-171 171s76.7 171 171 171 171-76.7 171-171S376.8 81.8 282.5 81.8z"/><path class="st20" d="M258.1 420.6c-74.2-10.7-133-69.5-143.8-143.7 -2.2 0.6-4.5 1-6.9 1 -1.4 0-2.8-0.1-4.1-0.3 11.1 79.6 74.2 142.8 153.8 154.1 -0.1-1.1-0.2-2.1-0.2-3.2C256.9 425.7 257.3 423.1 258.1 420.6z"/><path class="st20" d="M312.1 285.5c-6.2-13.1-14.7-25.1-24.8-35.5 -20.4-21.5-48.2-35.8-77.6-40.3 -29.9-4.5-65.4-0.4-88.2 21.3 -5.6 5.4-11.9 11.4-15.4 18.4 -3.6 7.2-3.6 14.9-1.4 22.5 2.2 7.4 13.7 4.2 11.6-3.2 -1.6-5.5-1.7-10.4 1.4-15.4 3.2-5.2 8-9.7 12.4-13.9 10.1-9.7 23.7-14.7 37.2-17.4 26.1-5.1 54-0.7 77.7 11.3 9.9 5 19 11.2 27.2 18.6 0.2 0.3 0.4 0.5 0.7 0.7 2.1 1.9 4.2 3.9 6.2 6 0.5 0.5 1 1 1.4 1.5 15.6 16.8 26.3 37.6 31 60.2 5.3 25.6 3.4 56.9-12.8 78.4 -4.2 5.6-9.8 11.2-15.4 15.3 -5.5 4.1-11.1 4.8-17.7 2.9 -7.4-2.1-10.6 9.5-3.2 11.6 6.7 1.9 13.6 2.2 20.1-0.4 6.4-2.6 11.6-7.4 16.5-12.2 11.7-11.5 19.3-25 23.3-40.9C329.6 345.3 325.3 313.1 312.1 285.5z"/><circle class="st1" cx="458.4" cy="253.1" r="25.5"/><circle class="st1" cx="282.4" cy="76.4" r="25.5"/><path class="st21" d="M132.9 251.4c0 11.7-7.9 21.5-18.6 24.5 10.8 74.2 69.6 133 143.8 143.7 3.3-10.3 12.9-17.8 24.3-17.8 11.4 0 21.1 7.5 24.3 17.8 82.3-11.8 145.8-82.7 145.8-168.3 0-93.7-76.3-170-170-170 -85.4 0-156.3 63.3-168.2 145.5C125 229.8 132.9 239.7 132.9 251.4z"/><path class="st1" d="M114.3 228.5c-2.2-0.6-4.5-1-6.9-1 -1.4 0-2.8 0.1-4.1 0.3 -12.1 2-21.4 12.5-21.4 25.2 0 12.7 9.3 23.2 21.4 25.2 1.3 0.2 2.7 0.3 4.1 0.3 2.4 0 4.7-0.3 6.9-1 10.7-3 18.6-12.9 18.6-24.5C132.9 241.4 125 231.5 114.3 228.5z"/><path class="st1" d="M306.2 419.7c-3.3-10.3-12.9-17.8-24.3-17.8 -11.4 0-21 7.5-24.3 17.8 -0.8 2.4-1.2 5-1.2 7.7 0 1.1 0.1 2.2 0.2 3.2 1.6 12.6 12.3 22.3 25.3 22.3 13 0 23.7-9.7 25.3-22.2 0.1-1.1 0.2-2.2 0.2-3.3C307.4 424.7 307 422.1 306.2 419.7z"/><circle class="st22" cx="281.9" cy="75.9" r="18"/><circle class="st22" cx="457.9" cy="252.9" r="18"/><circle class="st22" cx="106.9" cy="252.9" r="18"/><circle class="st22" cx="281.9" cy="427.9" r="18"/><text transform="matrix(1 0 0 1 101.906 258.5368)" class="st1 st23 st24">1</text><text transform="matrix(1 0 0 1 275.906 82.375)" class="st1 st23 st24">2</text><text transform="matrix(1 0 0 1 452.5661 258.5368)" class="st1 st23 st24">3</text><text transform="matrix(1 0 0 1 275.4593 434.4997)" class="st1 st23 st24">4</text><path class="st22" d="M242.6 42.9V22.6h7c4.8 0 6.1 2.2 6.1 5 0 2.9-1.8 4.3-4 4.8v0.1c3.3 0.4 4.8 2.2 4.8 5 0 4.1-3.1 5.5-7.5 5.5H242.6zM248.1 31.5c2.2 0 5-0.6 5-3.6 0-2.5-1.5-3.2-4.2-3.2h-3.7v6.7H248.1zM248.6 40.7c2.9 0 5.2-0.4 5.2-3.5 0-2.7-2-3.6-4.6-3.6h-4v7.1H248.6z"/><path class="st22" d="M272.4 35.8V22.6h2.5v13.5c0 4.9-2.7 7.1-7.5 7.1 -5.2 0-7.4-2.5-7.4-7.2V22.6h2.6v13.2c0 3.8 1.7 5.2 4.9 5.2C270.8 41 272.4 39.7 272.4 35.8z"/><path class="st22" d="M282.7 42.9h-2.6V22.6h2.6V42.9z"/><path class="st22" d="M290.7 40.6h9.1v2.3h-11.7V22.6h2.6V40.6z"/><path class="st22" d="M303.6 42.9V22.6h6.2c7 0 10.1 3.8 10.1 9.8 0 6.2-3.3 10.4-10.5 10.4H303.6zM309.4 40.7c5.3 0 7.8-2.9 7.8-7.9 0-6.2-2.8-8-7.6-8h-3.4v15.9H309.4z"/><path class="st22" d="M13.2 262.8h-2.6v-20.3h2.6V262.8z"/><path class="st22" d="M18.5 262.8v-20.3h6.2c7 0 10.1 3.8 10.1 9.8 0 6.2-3.3 10.4-10.5 10.4H18.5zM24.3 260.6c5.3 0 7.8-2.9 7.8-7.9 0-6.2-2.8-8-7.6-8h-3.4v15.9H24.3z"/><path class="st22" d="M41.5 260.6h9.6v2.2H38.9v-20.3h11.8v2.2h-9.3v6.7h8.7v2.2h-8.7V260.6z"/><path class="st22" d="M63.5 242.6l7.1 20.3h-2.8l-2-6h-7.8l-2 6h-2.6l6.8-20.3H63.5zM61.8 244.9L61.8 244.9l-3.3 9.7h6.5L61.8 244.9z"/><path class="st22" d="M242.2 483.6h9.1v2.3h-11.7v-20.3h2.6V483.6z"/><path class="st22" d="M257.6 483.6h9.6v2.2h-12.2v-20.3h11.8v2.2h-9.3v6.7h8.7v2.2h-8.7V483.6z"/><path class="st22" d="M279.7 465.6l7.1 20.3h-2.8l-2-6h-7.8l-2 6h-2.6l6.8-20.3H279.7zM278 468L278 468l-3.3 9.7h6.5L278 468z"/><path class="st22" d="M304.9 485.9h-2.8l-4.6-8.4h-4.6v8.4h-2.5v-20.3h6.9c5 0 6.6 2.7 6.6 5.5 0 3.1-1.6 4.8-3.9 5.7L304.9 485.9zM296.7 475.3c2.7 0 4.5-0.9 4.5-4 0-2.7-1.8-3.5-4.8-3.5h-3.5v7.5H296.7z"/><path class="st22" d="M320.3 485.9l-10-17v17h-2.4v-20.3h3.4l9.7 16.8v-16.8h2.4v20.3H320.3z"/><path class="st22" d="M499.2 260.6h9.1v2.3h-11.7v-20.3h2.6V260.6z"/><path class="st22" d="M520.6 242.6l7.1 20.3h-2.8l-2-6H515l-2 6h-2.6l6.8-20.3H520.6zM518.9 244.9L518.9 244.9l-3.3 9.7h6.5L518.9 244.9z"/><path class="st22" d="M542.8 255.8v-13.2h2.5V256c0 4.9-2.7 7.1-7.5 7.1 -5.2 0-7.4-2.5-7.4-7.2v-13.4h2.6v13.2c0 3.8 1.7 5.2 4.9 5.2C541.2 260.9 542.8 259.6 542.8 255.8z"/><path class="st22" d="M563 262.8l-10-17v17h-2.4v-20.3h3.4l9.7 16.8v-16.8h2.4v20.3H563z"/><path class="st22" d="M570.2 253c0-6.8 3.7-10.8 9.4-10.8 4.3 0 7.2 2.1 7.5 6.8l-2.4 0.3c-0.4-3.2-1.8-4.8-5.2-4.8 -4.2 0-6.7 2.8-6.7 8.3 0 5.8 2.4 8.2 6.4 8.2 3.2 0 4.8-1.4 5.4-4.3l2.3 0.5c-0.7 4.5-4.4 6-7.9 6C572.8 263.2 570.2 259.1 570.2 253z"/><path class="st22" d="M605.9 262.8h-2.6v-9.2h-9.9v9.2h-2.6v-20.3h2.6v8.8h9.9v-8.8h2.6V262.8z"/></svg>