<svg xmlns="http://www.w3.org/2000/svg" version="1.1" x="0" y="0" viewBox="0 0 960.2 127" xml:space="preserve"><style type="text/css">
	.st0{fill:#111111;}
	.st1{fill:#FFFFFF;}
	.st2{fill:#FEFDF4;}
	.st3{fill:#D4003B;}
	.st4{fill:none;stroke:#D4003B;stroke-width:16;stroke-linecap:round;stroke-linejoin:round;stroke-miterlimit:10;}
	.st5{fill:none;stroke:#000000;stroke-width:9;stroke-linecap:round;stroke-miterlimit:10;}
	.st6{stroke:#D4003B;stroke-width:5;stroke-miterlimit:10;}
	.st7{fill:none;stroke:#000000;stroke-width:10;stroke-linecap:round;stroke-miterlimit:10;}
	.st8{fill:#BF2000;}
	.st9{fill:#009EFF;}
	.st10{fill:#FF7715;}
	.st11{fill:#FF6B2A;}
	.st12{fill:#E92700;}
	.st13{fill:#99D8FF;}
	.st14{fill:#FFC700;}
	.st15{fill:#231F20;}
	.st16{fill:#FFFFFF;stroke:#FFFFFF;stroke-width:8;stroke-miterlimit:10;}
	.st17{fill:#D4003B;stroke:#D4003B;stroke-width:7;stroke-miterlimit:10;}
	.st18{fill:#FDFDFD;}
	.st19{fill:#E6E6E6;}
	.st20{fill:#208BC3;}
	.st21{fill:none;}
	.st22{fill:#959595;}
</style><rect x="489.1" y="7.5" width="467" height="112"/><path class="st1" d="M522.9 90V37h20.8c15.2 0 23.9 11.5 23.9 26.6 0 15-8.7 26.4-23.9 26.4H522.9zM534.1 79.8h9.5c8.5 0 12.7-7.5 12.7-16.2 0-8.8-4.2-16.4-12.7-16.4h-9.5V79.8z"/><path class="st1" d="M577.3 37h33.6v9.9h-22.3V59h19.6v9.8h-19.6v11.3h23V90h-34.3V37z"/><path class="st1" d="M629.5 74.3c0.2 3.4 2.8 6.4 7.9 6.4 4.5 0 7.7-2.2 7.8-5.6 0.1-2.4-1-4.5-6.4-6l-6.4-1.8c-11.7-3.6-13.7-10.5-13.7-15.2 0-9.5 8.1-15.9 18.2-15.9 10.2 0 17.9 6.1 17.9 16.2h-11.2c0-3.5-2.4-6-6.9-6 -3.9 0-6.9 2.2-6.9 5.3 0 1.4 0.5 3.9 5.7 5.4l6.3 2c12.9 3.7 14.7 10.9 14.6 16 -0.2 10.5-9.7 15.6-19.1 15.6 -11.5 0-19.2-6.9-19.2-16.4H629.5z"/><path class="st1" d="M677.1 37v53h-11.2V37H677.1z"/><path class="st1" d="M723.7 82.7c-1.5 2.4-3.7 4.4-6.7 6.2 -3 1.8-6.7 2.7-11.2 2.7 -5.9 0-10.6-1.7-14.1-5.2 -3.5-3.4-5.3-8.3-5.3-14.7V55.1c0-6.3 1.7-11.2 5.1-14.6 3.4-3.5 8-5.2 13.6-5.2 6.1 0 10.6 1.5 13.6 4.5 3 3 4.6 7.2 4.7 12.8l-0.1 0.2h-10c-0.1-3.1-0.8-5.3-2-6.8s-3.3-2.1-5.9-2.1c-2.6 0-4.7 0.9-6.1 2.8 -1.5 1.8-2.2 4.6-2.2 8.4v16.8c0 3.8 0.7 6.7 2.2 8.5s3.7 2.8 6.5 2.8c2.1 0 3.7-0.3 4.7-0.9 1-0.6 1.8-1.4 2.5-2.6v-9.8h-7.2v-7.5h17.9V82.7z"/><path class="st1" d="M773.7 90h-10.1l-18.5-32.1V90h-11.2V37h10.3l18.2 31.7V37h11.3V90z"/><rect x="797.4" y="19" class="st1" width="148" height="89"/><path d="M878.1 91.4h-11.9V35.6h11.9V91.4z"/><path d="M899.6 90.5V46.2h-15.9v-9.7h43.2v9.7h-15.7v44.3H899.6z"/><path d="M851.8 76.8l-11-18.1L860.5 36h-12.2L827 59.6V36h-11v54h11V73.6l5.4-5.7 12.1 18.8c1.4 2.2 3.9 3.3 6.5 3.3h8v-9.6C857 80.4 853.1 79 851.8 76.8z"/><g transform="translate(-208.33036,-691.27959)"><path class="st1" d="M582.1 703.7v98.9h100.2v-98.9H582.1zM460.3 703.9v98.9h99.9v-98.9H460.3zM339.5 704.2V803h99.9v-98.9H339.5zM218.5 704.7v98.6h99.9v-98.6H218.5z"/><path d="M212.3 698.8v112h112v-112H212.3zM333.3 698.8v112h112v-112H333.3zM454.1 698.8v112h112v-112H454.1zM575.1 698.8v112h112v-112H575.1zM631 710.1c24.6 0 44.5 20.2 44.5 44.8 0 24.6-19.9 44.5-44.5 44.5 -24.6 0-44.5-19.9-44.5-44.5C586.4 730.3 606.3 710.1 631 710.1zM228.8 715.2h79.3v13.9h-33v51.2h33V794h-79.6v-13.6h32.7v-51.2h-32.4V715.2zM349.3 715.2h10.6 29.4c22 0 39.9 17.9 39.9 39.9 0 22-17.9 39.1-39.9 39.1h-29.4 -10.6V715.2zM470.6 715.2h79.3v13.9h-65.7v18.5H536v14.2h-51.8v18.8h65.7v13.6h-79.3V715.2zM631 725.5c-16.1 0-29.1 13.2-29.1 29.4s13 29.1 29.1 29.1c16.1 0 29.1-13 29.1-29.1C660.1 738.8 647.1 725.5 631 725.5zM389.2 728.9l-19.3 0.3h-7v51.2h7 19.3c14.4 0 26.3-11.1 26.3-25.5C415.5 740.5 403.6 728.9 389.2 728.9z"/></g></svg>