<svg xmlns="http://www.w3.org/2000/svg" width="110" height="110" viewBox="0 0 110 110" version="1.1"><title>resources</title><desc>Created with Sketch.</desc><g stroke="none" stroke-width="1" fill="none" fill-rule="evenodd"><g fill="#9B9B9B"><g transform="translate(11.000000, 10.000000)"><path d="M20.5 89.5C16.7 89.5 12.8 88.3 9.4 86L8.6 85.5C-0.2 79.3-2.4 67.1 3.7 58.2L22.4 33.2C25.4 29 29.9 26.1 35 25.2 40.2 24.2 45.4 25.4 49.7 28.4L50.4 28.9C54.1 31.4 56.8 35.1 58 39.4 58.4 40.8 57.6 42.3 56.2 42.7 54.8 43.1 53.3 42.3 52.9 40.9 51.9 37.8 50 35.1 47.3 33.3L46.6 32.8C43.5 30.6 39.7 29.8 36 30.5 32.2 31.1 29 33.2 26.8 36.3L8.1 61.3C3.7 67.7 5.3 76.6 11.7 81.1L12.4 81.6C18.9 86 27.8 84.4 32.3 78L38 69.8C38.8 68.5 40.5 68.2 41.7 69.1 42.9 69.9 43.2 71.6 42.4 72.8L36.7 81.1C32.9 86.5 26.7 89.5 20.5 89.5M50 65.3C46.2 65.3 42.3 64.1 38.9 61.8L38.1 61.2C34.5 58.7 31.8 55 30.5 50.7 30.1 49.3 30.9 47.8 32.3 47.4 33.8 46.9 35.3 47.8 35.7 49.2 36.6 52.3 38.5 55 41.2 56.8L41.9 57.3C48.4 61.8 57.3 60.2 61.8 53.8L80.5 28.8C84.9 22.4 83.3 13.5 76.8 9L76.1 8.6C73 6.4 69.2 5.5 65.5 6.2 61.7 6.9 58.5 9 56.3 12.1L50.6 20.4C49.7 21.6 48.1 21.9 46.8 21 45.6 20.2 45.3 18.5 46.2 17.3L51.9 9.1C54.9 4.8 59.4 1.9 64.5 0.9 69.7 0 74.9 1.1 79.2 4.1L79.9 4.6C88.8 10.8 91 23.1 84.8 31.9L66.1 56.9C62.3 62.3 56.3 65.3 50 65.3M66.8 41.2C66.5 41.2 66.2 41.1 66 40.9 65.4 40.4 65.3 39.6 65.7 39L66.5 38C66.9 37.4 67.7 37.3 68.3 37.8 68.9 38.2 69 39 68.6 39.6L67.9 40.6C67.6 41 67.2 41.2 66.8 41.2M69.9 37.1C69.6 37.1 69.3 37 69.1 36.8 68.5 36.3 68.3 35.5 68.8 34.9L74.7 27C76.2 24.9 76.7 22.4 76.3 19.9 75.8 17.4 74.4 15.2 72.3 13.7L71.8 13.4C71.2 13 71.1 12.2 71.5 11.6 71.9 10.9 72.8 10.8 73.4 11.2L73.8 11.5C76.5 13.4 78.3 16.2 78.9 19.4 79.5 22.6 78.8 25.9 76.9 28.5L70.9 36.5C70.7 36.9 70.3 37.1 69.9 37.1"/></g></g></g></svg>